# xmcd
# 
# Track frame offsets:
#	150
#	14513
#	26775
#	37413
#	51525
#	65213
#	78888
#	93138
#	107850
#	121250
#	134500
#	148875
#	161863
#	174750
#	189288
#	203100
#
# Disc length: 2910 seconds
#
# Revision: 1
# Processed by: cddbd v1.4PL0 Copyright (c) Steve Scherf et al.
# Submitted via: Audio-CD-Archiv 2.10.438
#
DISCID=ec0b5c10
DTITLE=The Jug and Washboard Bands - Vol. 2  (1928 - 1930)
DYEAR=1900
DGENRE=blues
TTITLE0=Tub Jug Washboard Band - Washboard Rag
TTITLE1=Tub Jug Washboard Band - Lady Quit Her Husband Oneexpectinly
TTITLE2=Tub Jug Washboard Band - Tub-Jug Rag
TTITLE3=Tub Jug Washboard Band - San
TTITLE4=Rev. E.S. "Shy" Moore - Christ, The Teacher
TTITLE5=Rev. E.S. "Shy" Moore - The Solemn Warning
TTITLE6=Feathers And Frogs - How You Get That Way
TTITLE7=Feathers And Frogs - Sweet Black Dog
TTITLE8=Philips´ Louisville Jug Band - Soldier Boy Blues
TTITLE9=Philips´ Louisville Jug Band - That´s A Lovely Thing For You
TTITLE10=Philips´ Louisville Jug Band - Sing, You Sinners
TTITLE11=Philips´ Louisville Jug Band - Tiger Rag
TTITLE12=Philips´ Louisville Jug Band - Walkin´ Cane Stomp
TTITLE13=Philips´ Louisville Jug Band - Hard Hustlin´ Blues
TTITLE14=Philips´ Louisville Jug Band - Smakin´ The Sax
TTITLE15=Philips´ Louisville Jug Band - That´s Your Last
EXTD=
EXTT0=
EXTT1=
EXTT2=
EXTT3=
EXTT4=
EXTT5=
EXTT6=
EXTT7=
EXTT8=
EXTT9=
EXTT10=
EXTT11=
EXTT12=
EXTT13=
EXTT14=
EXTT15=
PLAYORDER=
